<svg width="116" height="26" viewBox="0 0 116 26" fill="none" xmlns="http://www.w3.org/2000/svg">
<g clip-path="url(#clip0_2217_1157)">
<path d="M15.7132 6.20422L15.6957 6.19397L15.6554 6.18164C15.6716 6.19536 15.692 6.2033 15.7132 6.20422Z" fill="#0D0C22"/>
<path d="M15.7209 6.20198C15.7183 6.20166 15.7158 6.20106 15.7134 6.2002C15.7132 6.20187 15.7132 6.20354 15.7134 6.20521C15.7161 6.20486 15.7187 6.20374 15.7209 6.20198Z" fill="#0D0C22"/>
<path d="M15.7133 6.20452H15.7155V6.20312L15.7133 6.20452Z" fill="#0D0C22"/>
<path d="M15.9515 8.01692L15.9809 8.00016L15.9919 7.99401L16.0018 7.9834C15.9831 7.99144 15.9661 8.0028 15.9515 8.01692Z" fill="#0D0C22"/>
<path d="M15.764 6.244L15.7353 6.21666L15.7158 6.20605C15.7263 6.22454 15.7436 6.23815 15.764 6.244Z" fill="#0D0C22"/>
<path d="M8.5411 23.8633C8.51817 23.8732 8.49808 23.8887 8.48267 23.9084L8.50078 23.8968C8.51308 23.8855 8.5305 23.8722 8.5411 23.8633Z" fill="#0D0C22"/>
<path d="M12.7354 23.0381C12.7354 23.0121 12.7227 23.0168 12.7258 23.1092C12.7258 23.1016 12.7289 23.0941 12.7303 23.0869C12.732 23.0705 12.7333 23.0545 12.7354 23.0381Z" fill="#0D0C22"/>
<path d="M12.3004 23.8633C12.2774 23.8732 12.2574 23.8887 12.2419 23.9084L12.2601 23.8968C12.2724 23.8855 12.2898 23.8722 12.3004 23.8633Z" fill="#0D0C22"/>
<path d="M5.58728 24.06C5.56986 24.0448 5.54855 24.0349 5.52576 24.0312C5.5442 24.0402 5.56265 24.049 5.57495 24.0559L5.58728 24.06Z" fill="#0D0C22"/>
<path d="M4.9227 23.4233C4.92 23.3963 4.91174 23.3703 4.89844 23.3467C4.90787 23.3712 4.91574 23.3963 4.92203 23.4219L4.9227 23.4233Z" fill="#0D0C22"/>
<path d="M9.3873 12.0331C8.47483 12.4239 7.43929 12.8671 6.09723 12.8671C5.53579 12.8659 4.97707 12.7889 4.43628 12.638L5.3645 22.1726C5.39733 22.5711 5.57881 22.9427 5.87283 23.2135C6.16685 23.4844 6.55194 23.6347 6.95161 23.6346C6.95161 23.6346 8.26773 23.703 8.70688 23.703C9.17954 23.703 10.5968 23.6346 10.5968 23.6346C10.9964 23.6346 11.3814 23.4843 11.6754 23.2134C11.9693 22.9425 12.1507 22.571 12.1836 22.1726L13.1777 11.6365C12.7335 11.4846 12.2851 11.3838 11.7796 11.3838C10.9054 11.3834 10.201 11.6847 9.3873 12.0331Z" fill="#FFDD00"/>
<path d="M1.56287 7.96484L1.57913 7.98008L1.58974 7.98644C1.58157 7.97832 1.57256 7.97106 1.56287 7.96484Z" fill="#0D0C22"/>
<path d="M17.4701 7.0852L17.3303 6.3798C17.2049 5.7469 16.9202 5.14889 16.2709 4.92011C16.0627 4.84695 15.8266 4.8155 15.667 4.66403C15.5074 4.51256 15.4602 4.2773 15.4233 4.05916C15.355 3.65877 15.2907 3.25804 15.2207 2.85831C15.1602 2.51468 15.1123 2.12864 14.9548 1.81339C14.7497 1.39008 14.3242 1.14253 13.9011 0.978748C13.6843 0.897775 13.4631 0.829279 13.2385 0.773592C12.1814 0.494581 11.07 0.392003 9.98254 0.333534C8.67727 0.261473 7.36852 0.283184 6.06634 0.3985C5.09713 0.486716 4.07631 0.593399 3.15526 0.928826C2.81864 1.05158 2.47175 1.19895 2.21577 1.45915C1.9017 1.77885 1.79917 2.27328 2.02849 2.67196C2.19151 2.95508 2.46765 3.15509 2.76053 3.28743C3.14202 3.45794 3.54044 3.58767 3.94918 3.67449C5.08722 3.92615 6.26595 4.02498 7.42859 4.06701C8.71722 4.11904 10.0079 4.07689 11.2905 3.94085C11.6076 3.90597 11.9242 3.86416 12.2402 3.81535C12.6124 3.75826 12.8513 3.27137 12.7416 2.93217C12.6103 2.52664 12.2576 2.36936 11.8588 2.43056C11.8 2.43979 11.7416 2.44834 11.6828 2.45689L11.6404 2.46305C11.5053 2.48014 11.3702 2.4961 11.2351 2.51092C10.956 2.54101 10.6762 2.56563 10.3957 2.58477C9.76757 2.62854 9.13771 2.64871 8.50821 2.64974C7.88961 2.64974 7.27072 2.6323 6.65349 2.59161C6.37188 2.57315 6.09096 2.54967 5.81071 2.52117C5.68325 2.50784 5.55612 2.49382 5.42896 2.47809L5.30798 2.4627L5.28169 2.45894L5.15625 2.44082C4.89994 2.40218 4.64362 2.35773 4.39003 2.30405C4.36446 2.29837 4.34156 2.28413 4.32514 2.26367C4.30875 2.24322 4.29979 2.21778 4.29979 2.19156C4.29979 2.16533 4.30875 2.13989 4.32514 2.11944C4.34156 2.09899 4.36446 2.08474 4.39003 2.07906H4.39481C4.61457 2.03222 4.83602 1.99222 5.05817 1.95734C5.13221 1.94571 5.20648 1.93431 5.28099 1.92315H5.28305C5.42214 1.91391 5.56191 1.88895 5.70033 1.87254C6.90457 1.74722 8.11597 1.70449 9.32602 1.74466C9.91351 1.76176 10.5007 1.79629 11.0854 1.85579C11.2112 1.86878 11.3363 1.88246 11.4613 1.89784C11.5092 1.90366 11.5573 1.91049 11.6055 1.91631L11.7026 1.93033C11.9856 1.9725 12.2671 2.02367 12.5471 2.08385C12.962 2.17412 13.4948 2.20352 13.6793 2.65828C13.7381 2.80258 13.7648 2.96294 13.7972 3.11442L13.8386 3.30762C13.8397 3.31107 13.8405 3.3146 13.841 3.31819C13.9387 3.7741 14.0366 4.23 14.1346 4.68591C14.1417 4.71959 14.1419 4.75439 14.1351 4.78813C14.1282 4.82187 14.1145 4.85386 14.0947 4.88206C14.075 4.91026 14.0496 4.93409 14.0202 4.95204C13.9909 4.97 13.9581 4.98172 13.924 4.98645H13.9213L13.8615 4.99466L13.8024 5.00254C13.6151 5.02693 13.4276 5.04973 13.2398 5.07091C12.87 5.11309 12.4997 5.14955 12.1288 5.18034C11.3917 5.24164 10.6532 5.28187 9.91317 5.30102C9.5361 5.31107 9.15913 5.31572 8.7823 5.31505C7.28232 5.31385 5.78364 5.22664 4.29364 5.05382C4.13234 5.03467 3.97105 5.01415 3.80972 4.9933C3.93482 5.00936 3.71882 4.98099 3.67508 4.97484C3.57254 4.96048 3.47001 4.94553 3.36751 4.93005C3.02335 4.87841 2.68125 4.8148 2.33778 4.75907C1.92254 4.6907 1.52542 4.72488 1.14983 4.93005C0.84153 5.09883 0.592001 5.35767 0.434537 5.67202C0.272543 6.00711 0.224356 6.37193 0.151903 6.73199C0.0794504 7.09204 -0.0333298 7.47944 0.00938986 7.84905C0.101323 8.64678 0.658729 9.29507 1.46049 9.44005C2.21475 9.57682 2.97309 9.68759 3.73351 9.78196C6.72057 10.148 9.7383 10.1918 12.7347 9.91258C12.9787 9.88978 13.2224 9.86495 13.4657 9.83805C13.5417 9.82967 13.6186 9.83844 13.6908 9.86369C13.763 9.88891 13.8286 9.92998 13.8829 9.98387C13.9371 10.0378 13.9787 10.1031 14.0044 10.1751C14.0302 10.2472 14.0395 10.3241 14.0317 10.4002L13.9558 11.138C13.8029 12.6291 13.65 14.12 13.4972 15.6108C13.3377 17.1763 13.1772 18.7418 13.0156 20.3071C12.9701 20.748 12.9245 21.1887 12.8789 21.6293C12.8352 22.0633 12.829 22.5108 12.7467 22.9396C12.6168 23.6139 12.1606 24.028 11.4948 24.1794C10.8849 24.3183 10.2618 24.3912 9.63635 24.3969C8.94291 24.4007 8.24983 24.3699 7.55642 24.3736C6.81618 24.3778 5.90949 24.3094 5.33806 23.7582C4.83602 23.274 4.76666 22.516 4.69829 21.8605C4.60717 20.9927 4.51682 20.125 4.42728 19.2574L3.92491 14.4332L3.5999 11.3117C3.59441 11.2601 3.58896 11.2092 3.58384 11.1572C3.54486 10.7848 3.28136 10.4203 2.86614 10.4391C2.51071 10.4549 2.10675 10.7571 2.14845 11.1572L2.38939 13.4713L2.88767 18.2583C3.02961 19.618 3.17121 20.978 3.31247 22.3382C3.33982 22.5987 3.36545 22.8599 3.39416 23.1205C3.55034 24.5443 4.63713 25.3116 5.98297 25.5276C6.76901 25.6542 7.57417 25.6801 8.37184 25.6931C9.39439 25.7096 10.4272 25.7489 11.433 25.5635C12.9234 25.29 14.0416 24.2943 14.2012 22.7498C14.2468 22.304 14.2923 21.858 14.3379 21.4119C14.4894 19.9366 14.6407 18.4612 14.7917 16.9857L15.2859 12.1645L15.5125 9.95497C15.5238 9.84543 15.57 9.7424 15.6444 9.66117C15.7188 9.57997 15.8173 9.52485 15.9254 9.50397C16.3515 9.4209 16.7589 9.27898 17.062 8.9545C17.5446 8.43785 17.6406 7.76425 17.4701 7.0852ZM1.43862 7.56184C1.44511 7.55875 1.43315 7.61451 1.42802 7.64048C1.427 7.60117 1.42905 7.56629 1.43862 7.56184ZM1.47997 7.8819C1.48339 7.8795 1.49364 7.89317 1.50424 7.90957C1.48817 7.89453 1.47792 7.88326 1.47963 7.8819H1.47997ZM1.52064 7.93557C1.53533 7.96054 1.5432 7.97627 1.52064 7.93557V7.93557ZM1.60232 8.0019H1.60437C1.60437 8.0043 1.60813 8.00669 1.6095 8.00909C1.60723 8.00644 1.60471 8.00405 1.60198 8.0019H1.60232ZM15.9055 7.90275C15.7524 8.0484 15.5217 8.1161 15.2938 8.14995C12.7374 8.52949 10.1439 8.72166 7.55948 8.63687C5.70991 8.57359 3.87978 8.36809 2.04865 8.10928C1.86923 8.08397 1.67477 8.05112 1.5514 7.91881C1.319 7.66921 1.43315 7.16657 1.49364 6.865C1.54901 6.58873 1.65495 6.22046 1.98338 6.18115C2.49601 6.12097 3.09135 6.33741 3.59853 6.41435C4.20914 6.50758 4.822 6.58222 5.43717 6.63831C8.06254 6.87763 10.732 6.84039 13.3458 6.49024C13.8222 6.42618 14.2969 6.35177 14.7699 6.26698C15.1913 6.1914 15.6584 6.0495 15.9131 6.48615C16.0877 6.78362 16.1109 7.18163 16.0839 7.51774C16.0756 7.66417 16.0117 7.80192 15.9052 7.90275H15.9055Z" fill="#0D0C22"/>
<path fill-rule="evenodd" clip-rule="evenodd" d="M31.4107 15.0088C31.2616 15.2939 31.0562 15.5421 30.7953 15.7528C30.534 15.9635 30.2293 16.1352 29.8809 16.2673C29.5329 16.3998 29.1823 16.4886 28.83 16.5339C28.4775 16.5794 28.1352 16.5755 27.8037 16.5215C27.472 16.4679 27.1899 16.3584 26.9579 16.1929L27.2192 13.4775C27.4596 13.3949 27.7621 13.3101 28.1272 13.2232C28.4919 13.1366 28.867 13.0744 29.2527 13.0373C29.6383 13 30.0031 13.0044 30.3476 13.0497C30.6912 13.0952 30.963 13.2047 31.162 13.3784C31.2697 13.4775 31.3612 13.5849 31.4358 13.7007C31.5103 13.8164 31.556 13.9363 31.5727 14.0603C31.6138 14.4074 31.5601 14.7236 31.4107 15.0088ZM27.617 9.22448C27.7913 9.11706 28.0006 9.02188 28.2451 8.93914C28.4897 8.85671 28.7407 8.79864 28.9978 8.76563C29.2546 8.73275 29.5056 8.72835 29.7504 8.75318C29.9947 8.77804 30.2107 8.84616 30.3971 8.95768C30.5838 9.06937 30.7226 9.23064 30.8136 9.44126C30.9049 9.65222 30.9299 9.91885 30.8885 10.2412C30.8554 10.4974 30.7535 10.7145 30.5838 10.8921C30.4138 11.07 30.2062 11.2187 29.9619 11.3385C29.7171 11.4586 29.458 11.5536 29.1845 11.6236C28.9107 11.6941 28.6472 11.7458 28.3946 11.7787C28.1416 11.8119 27.9218 11.8326 27.7354 11.8407C27.5487 11.849 27.4263 11.8531 27.3684 11.8531L27.617 9.22448ZM32.7541 13.2542C32.6214 12.9651 32.4433 12.7109 32.2193 12.4916C31.9956 12.2726 31.7299 12.1136 31.4233 12.0143C31.556 11.9069 31.6865 11.7375 31.815 11.5059C31.9436 11.2747 32.0535 11.0224 32.1447 10.7496C32.2357 10.4766 32.2981 10.202 32.3312 9.92498C32.3643 9.64812 32.3518 9.41041 32.2942 9.2119C32.1528 8.71608 31.931 8.32751 31.6283 8.0464C31.3256 7.76546 30.9733 7.57118 30.5713 7.46358C30.1689 7.35646 29.7254 7.33349 29.2404 7.39546C28.7552 7.45746 28.2596 7.57936 27.754 7.76123C27.754 7.72 27.7581 7.67657 27.7665 7.63111C27.7745 7.58582 27.7788 7.53816 27.7788 7.48844C27.7788 7.36448 27.7166 7.25719 27.5923 7.16613C27.4679 7.07518 27.3248 7.02157 27.1632 7.00489C27.0015 6.98852 26.8438 7.02343 26.6905 7.11029C26.5369 7.19712 26.4312 7.35646 26.3733 7.58755C26.3068 8.3316 26.2406 9.10461 26.1743 9.90627C26.1079 10.7082 26.0375 11.5183 25.9628 12.3368C25.8882 13.1551 25.8136 13.9673 25.7389 14.7732C25.6643 15.5792 25.5896 16.3541 25.515 17.098C25.5399 17.3213 25.6021 17.4949 25.7017 17.6189C25.8011 17.743 25.9172 17.8174 26.0499 17.8421C26.1825 17.867 26.3215 17.844 26.4666 17.7738C26.6115 17.7038 26.7381 17.5816 26.8461 17.4081C27.1776 17.5899 27.5508 17.7078 27.9655 17.7616C28.3801 17.8152 28.8008 17.8152 29.2279 17.7616C29.6547 17.7078 30.0757 17.6066 30.4903 17.4576C30.9049 17.309 31.2822 17.1229 31.6222 16.8998C31.9622 16.6766 32.2482 16.4223 32.4806 16.1372C32.7126 15.8519 32.8659 15.544 32.9408 15.2135C33.0154 14.8745 33.036 14.5357 33.0028 14.1967C32.9697 13.8578 32.8868 13.5438 32.7541 13.2542Z" fill="#0D0C23"/>
<path fill-rule="evenodd" clip-rule="evenodd" d="M44.8882 19.8006C44.8426 20.0733 44.7781 20.3606 44.6954 20.6625C44.6122 20.964 44.5148 21.239 44.403 21.487C44.2911 21.735 44.1668 21.9352 44.0301 22.0883C43.893 22.2412 43.7458 22.3054 43.5883 22.2807C43.4639 22.2638 43.3852 22.1853 43.3521 22.045C43.319 21.9042 43.319 21.7307 43.3521 21.5242C43.3852 21.3175 43.4494 21.0839 43.5449 20.8235C43.64 20.5632 43.7564 20.3047 43.893 20.0486C44.0301 19.7922 44.1854 19.5465 44.3596 19.3109C44.5338 19.0754 44.716 18.8789 44.9069 18.7219C44.9483 18.7715 44.967 18.8954 44.9628 19.0939C44.9584 19.2923 44.9336 19.5279 44.8882 19.8006ZM49.1048 14.4192C48.9929 14.2953 48.856 14.2251 48.6944 14.2084C48.5327 14.1919 48.3688 14.2828 48.203 14.4812C48.095 14.6796 47.9584 14.8698 47.7926 15.0516C47.6265 15.2336 47.4545 15.3988 47.2761 15.5476C47.0981 15.6962 46.9281 15.8246 46.7664 15.9319C46.6047 16.0395 46.4781 16.118 46.3869 16.1675C46.3538 15.9031 46.3351 15.6179 46.3309 15.3119C46.3265 15.0061 46.3329 14.6962 46.3496 14.3821C46.3744 13.9357 46.4261 13.4853 46.5051 13.0305C46.5839 12.5759 46.698 12.1294 46.8471 11.6912C46.8471 11.46 46.7931 11.2718 46.6854 11.1271C46.5775 10.9825 46.447 10.8915 46.2937 10.8543C46.1401 10.8172 45.9829 10.8378 45.8209 10.9163C45.6593 10.995 45.5204 11.1376 45.4044 11.344C45.3048 11.6169 45.1907 11.9228 45.0624 12.2616C44.9336 12.6006 44.7886 12.9457 44.627 13.297C44.4653 13.6486 44.2847 13.9895 44.0858 14.32C43.8868 14.6508 43.6693 14.9443 43.4328 15.2004C43.1965 15.4567 42.9394 15.6572 42.6617 15.8018C42.3838 15.9465 42.0835 16.0106 41.7599 15.994C41.6105 15.9527 41.5029 15.8411 41.4363 15.6591C41.3701 15.4774 41.3306 15.25 41.3184 14.9772C41.3059 14.7044 41.3184 14.4047 41.3557 14.0782C41.3929 13.7518 41.4428 13.4272 41.5048 13.1049C41.5671 12.7824 41.6356 12.4766 41.7101 12.1874C41.7847 11.8981 41.8551 11.6541 41.9216 11.4557C42.0212 11.2161 42.0212 11.0154 41.9216 10.8543C41.822 10.6931 41.6854 10.5858 41.5112 10.5318C41.337 10.4782 41.1545 10.4804 40.9639 10.5381C40.773 10.596 40.6361 10.7241 40.5535 10.9224C40.4124 11.2616 40.2839 11.6416 40.1678 12.0632C40.0515 12.4848 39.9583 12.921 39.8879 13.3714C39.8172 13.8221 39.7777 14.2685 39.7697 14.7107C39.7691 14.7395 39.7705 14.7669 39.7705 14.7955C39.5896 15.2761 39.4171 15.6393 39.2535 15.8823C39.0421 16.1967 38.8036 16.333 38.5384 16.2915C38.4221 16.2419 38.3456 16.1263 38.3083 15.9443C38.2708 15.7626 38.2582 15.5394 38.2708 15.2747C38.2836 15.0104 38.3145 14.7107 38.364 14.3758C38.4141 14.0411 38.4761 13.6939 38.5507 13.3343C38.6255 12.9745 38.7043 12.6132 38.7869 12.2493C38.8698 11.8856 38.9444 11.5425 39.0112 11.2201C39.0028 10.9308 38.9177 10.7098 38.756 10.5567C38.5944 10.404 38.3682 10.344 38.0782 10.3769C37.8793 10.4596 37.7318 10.5672 37.6364 10.6994C37.5409 10.8315 37.4644 11.0011 37.4065 11.2076C37.3732 11.3152 37.3233 11.5301 37.2571 11.8526C37.1906 12.1748 37.1058 12.5449 37.0023 12.9623C36.8985 13.3799 36.7763 13.8158 36.6352 14.2704C36.4942 14.725 36.3367 15.1366 36.1628 15.5042C35.9883 15.872 35.7977 16.1675 35.5904 16.3908C35.3831 16.6138 35.1592 16.7049 34.9188 16.6635C34.786 16.6387 34.7012 16.5023 34.6639 16.2544C34.6266 16.0063 34.6202 15.7007 34.6452 15.3368C34.67 14.9731 34.7198 14.5742 34.7944 14.1403C34.869 13.7063 34.9455 13.2951 35.0245 12.9064C35.1032 12.518 35.1759 12.1748 35.2424 11.8773C35.3086 11.5797 35.3542 11.3813 35.379 11.2822C35.379 11.0425 35.325 10.8504 35.2173 10.7055C35.1094 10.5611 34.9789 10.47 34.8255 10.4327C34.672 10.3956 34.5145 10.4162 34.3528 10.4947C34.1911 10.5734 34.0523 10.7161 33.936 10.9224C33.8945 11.1456 33.8406 11.4041 33.7743 11.6975C33.7078 11.9909 33.6438 12.2926 33.5818 12.6026C33.5195 12.9127 33.4613 13.2164 33.4076 13.5141C33.3536 13.8117 33.3141 14.072 33.2894 14.2953C33.2727 14.4688 33.254 14.6818 33.2334 14.9338C33.2126 15.1861 33.2023 15.4526 33.2023 15.7335C33.2023 16.0148 33.2229 16.2937 33.2646 16.5706C33.3058 16.8476 33.3806 17.1018 33.4883 17.333C33.596 17.5646 33.7474 17.7546 33.9424 17.9034C34.1372 18.0522 34.384 18.1348 34.6825 18.1515C34.9892 18.1679 35.2565 18.1454 35.4847 18.0832C35.7129 18.0213 35.9199 17.924 36.1066 17.7918C36.2933 17.6597 36.463 17.5026 36.6166 17.3206C36.7699 17.1389 36.9213 16.9405 37.0707 16.7255C37.2115 17.0398 37.394 17.2835 37.618 17.4571C37.8417 17.6307 38.0782 17.7342 38.327 17.767C38.5754 17.7999 38.8286 17.7652 39.0857 17.6616C39.3426 17.5584 39.5746 17.3827 39.7822 17.1347C39.9188 16.9826 40.0476 16.8097 40.1684 16.6185C40.2196 16.708 40.2741 16.7944 40.3356 16.8742C40.539 17.1389 40.8148 17.3206 41.1631 17.4199C41.536 17.5191 41.9007 17.5358 42.2574 17.4696C42.6139 17.4035 42.9539 17.2835 43.2772 17.11C43.6008 16.9363 43.9013 16.7277 44.1793 16.4837C44.457 16.2399 44.6993 15.9858 44.9069 15.7211C44.8983 15.9113 44.8944 16.0912 44.8944 16.2605C44.8944 16.4301 44.8902 16.6138 44.8819 16.8124C44.4673 17.1018 44.0755 17.449 43.7065 17.8539C43.3373 18.2588 43.014 18.6908 42.7363 19.1496C42.4586 19.6083 42.2408 20.0733 42.0835 20.5445C41.9258 21.0159 41.849 21.4559 41.8532 21.8652C41.8573 22.2744 41.9547 22.6318 42.1453 22.9376C42.3362 23.2435 42.647 23.4625 43.0783 23.5948C43.5262 23.7354 43.92 23.7394 44.26 23.6073C44.6 23.4749 44.8963 23.2558 45.1492 22.95C45.4022 22.6442 45.6095 22.2744 45.7714 21.8404C45.9331 21.4063 46.0616 20.9538 46.1568 20.4826C46.2522 20.0115 46.3123 19.5482 46.3371 19.0939C46.3621 18.6391 46.3621 18.2339 46.3371 17.8786C47.0502 17.5811 47.6348 17.205 48.0908 16.7502C48.5469 16.2959 48.9242 15.8163 49.2227 15.3119C49.314 15.188 49.3452 15.0392 49.3162 14.8657C49.287 14.692 49.2166 14.5432 49.1048 14.4192Z" fill="#0D0C23"/>
<path fill-rule="evenodd" clip-rule="evenodd" d="M64.7953 13.6263C64.82 13.4363 64.8573 13.2357 64.9071 13.0249C64.9567 12.8142 65.019 12.6095 65.0938 12.4111C65.1681 12.2128 65.2552 12.0413 65.3548 11.8966C65.4544 11.752 65.5602 11.6487 65.672 11.5866C65.7842 11.5247 65.898 11.5308 66.0143 11.6051C66.1386 11.6797 66.2152 11.8366 66.2444 12.0762C66.273 12.3163 66.2444 12.5724 66.1573 12.8451C66.0699 13.1181 65.9147 13.3742 65.6907 13.6139C65.467 13.8538 65.1642 14.0106 64.7828 14.0851C64.7661 13.9696 64.7702 13.8165 64.7953 13.6263ZM69.105 14.1346C68.9681 14.0935 68.8376 14.0893 68.7132 14.1223C68.5889 14.1554 68.5098 14.2422 68.477 14.3828C68.4102 14.6473 68.3048 14.918 68.1595 15.1948C68.0146 15.4719 67.8362 15.7343 67.625 15.9823C67.4136 16.2303 67.1748 16.4494 66.9097 16.6394C66.6442 16.8296 66.3665 16.966 66.0763 17.0486C65.7858 17.1396 65.5454 17.1499 65.3548 17.0795C65.1642 17.0096 65.0129 16.8895 64.901 16.7201C64.7892 16.5507 64.7082 16.346 64.6584 16.1063C64.6086 15.8666 64.5794 15.6187 64.5713 15.3622C65.0437 15.3954 65.4647 15.3108 65.834 15.108C66.2026 14.9057 66.5157 14.6369 66.7728 14.3021C67.0299 13.9674 67.2246 13.5913 67.3574 13.1738C67.4898 12.7564 67.5646 12.341 67.5813 11.9276C67.5894 11.539 67.5315 11.2106 67.4072 10.9419C67.2828 10.6734 67.1147 10.4643 66.9033 10.3157C66.6921 10.1668 66.4494 10.08 66.1756 10.0553C65.9024 10.0305 65.6242 10.0677 65.3423 10.1668C65.0023 10.2826 64.7143 10.4706 64.4781 10.7311C64.2416 10.9915 64.0446 11.2933 63.8871 11.6362C63.7296 11.9793 63.6052 12.3492 63.514 12.7459C63.4227 13.1428 63.3565 13.5334 63.315 13.9178C63.2777 14.2628 63.2577 14.5927 63.2507 14.9111C63.2329 14.9515 63.2157 14.9903 63.1968 15.0336C63.0682 15.3273 62.9188 15.6146 62.7491 15.8955C62.5791 16.1766 62.3904 16.4123 62.1831 16.6023C61.9758 16.7925 61.7602 16.8585 61.5362 16.8007C61.4038 16.7678 61.3311 16.6146 61.3186 16.3419C61.3064 16.069 61.3206 15.7302 61.362 15.3251C61.4038 14.9202 61.4513 14.4818 61.5053 14.0106C61.559 13.5395 61.586 13.0891 61.586 12.6592C61.586 12.2872 61.5156 11.9298 61.3745 11.5866C61.2335 11.2438 61.0407 10.9584 60.7964 10.7311C60.5515 10.5036 60.2677 10.3528 59.9444 10.2785C59.6208 10.204 59.2727 10.2537 58.8996 10.4272C58.5262 10.6009 58.2298 10.8447 58.0103 11.1588C57.7902 11.4731 57.589 11.8036 57.4068 12.1508C57.3403 11.8862 57.2432 11.6405 57.1146 11.413C56.9858 11.1857 56.8286 10.9874 56.6419 10.8178C56.4552 10.6485 56.2457 10.5162 56.0139 10.4211C55.7816 10.3262 55.5367 10.2785 55.2799 10.2785C55.0311 10.2785 54.801 10.3262 54.5896 10.4211C54.3781 10.5162 54.1853 10.638 54.0111 10.7868C53.8369 10.9358 53.6794 11.103 53.5384 11.2891C53.3976 11.475 53.2729 11.6591 53.1655 11.8407C53.1485 11.6259 53.1299 11.4379 53.1093 11.2765C53.0887 11.1154 53.0511 10.979 52.9974 10.8675C52.9435 10.7558 52.8669 10.6712 52.7673 10.6133C52.6677 10.5555 52.5269 10.5264 52.3447 10.5264C52.2531 10.5264 52.1619 10.545 52.0709 10.5821C51.9794 10.6194 51.8984 10.6712 51.8283 10.7372C51.7576 10.8036 51.7039 10.884 51.6666 10.979C51.629 11.074 51.619 11.1837 51.6354 11.3076C51.6435 11.3987 51.6666 11.508 51.7039 11.6362C51.7412 11.7645 51.7762 11.932 51.8096 12.1384C51.8427 12.3451 51.8697 12.5952 51.8903 12.8886C51.9112 13.1821 51.9173 13.5417 51.909 13.9674C51.9006 14.3932 51.8697 14.8911 51.8157 15.4615C51.7618 16.0319 51.6766 16.6932 51.5609 17.4453C51.5442 17.619 51.6104 17.7596 51.7598 17.867C51.909 17.9743 52.079 18.0363 52.2698 18.053C52.4604 18.0695 52.641 18.0363 52.8107 17.9539C52.9808 17.871 53.0784 17.7264 53.1032 17.5199C53.1279 17.1313 53.1758 16.7181 53.2462 16.2798C53.3166 15.8419 53.4037 15.4078 53.5075 14.9779C53.611 14.5482 53.729 14.139 53.862 13.7503C53.9944 13.3618 54.1419 13.0188 54.3035 12.7212C54.4652 12.4236 54.6332 12.186 54.8071 12.0083C54.9813 11.8305 55.1636 11.7416 55.3545 11.7416C55.5868 11.7416 55.7668 11.8469 55.8956 12.0577C56.0239 12.2686 56.1152 12.5395 56.1691 12.8699C56.2231 13.2007 56.2479 13.5625 56.244 13.955C56.2395 14.3476 56.2231 14.7258 56.1942 15.0895C56.165 15.4533 56.1319 15.7777 56.0946 16.0629C56.0573 16.3481 56.0303 16.5446 56.0139 16.6518C56.0139 16.842 56.0862 16.9927 56.2312 17.1044C56.3764 17.216 56.5381 17.2822 56.7165 17.3028C56.8948 17.3235 57.0626 17.2903 57.2204 17.2035C57.3778 17.1167 57.4688 16.9702 57.4939 16.7634C57.5768 16.1683 57.6909 15.5711 57.8358 14.9718C57.9808 14.3725 58.1469 13.8353 58.3336 13.3599C58.52 12.8845 58.7273 12.4959 58.9555 12.1942C59.1834 11.8927 59.426 11.7416 59.6831 11.7416C59.8155 11.7416 59.9174 11.8327 59.9878 12.0144C60.0582 12.1963 60.0935 12.4442 60.0935 12.7583C60.0935 12.9899 60.0749 13.2276 60.0376 13.4714C60.0003 13.7152 59.9569 13.9674 59.9068 14.2277C59.8573 14.4882 59.8136 14.7547 59.7763 15.0275C59.739 15.3004 59.7204 15.5854 59.7204 15.8831C59.7204 16.0898 59.741 16.3295 59.7824 16.6023C59.8239 16.8749 59.9026 17.1335 60.0187 17.3772C60.135 17.6212 60.2944 17.8277 60.4978 17.9971C60.7009 18.1665 60.96 18.2513 61.2749 18.2513C61.7477 18.2513 62.1664 18.15 62.5315 17.9476C62.8963 17.7451 63.2093 17.4807 63.4706 17.1541C63.4839 17.137 63.4964 17.1187 63.5095 17.1017C63.5295 17.15 63.5474 17.2011 63.5699 17.2471C63.7482 17.6108 63.9909 17.8917 64.2978 18.0903C64.6041 18.2886 64.965 18.3981 65.3799 18.4189C65.7945 18.4393 66.246 18.3629 66.7358 18.1894C67.1003 18.0571 67.4174 17.8917 67.6871 17.6934C67.9564 17.495 68.199 17.2532 68.4147 16.968C68.6303 16.6828 68.827 16.3542 69.0057 15.9823C69.184 15.6101 69.364 15.1846 69.5466 14.705C69.5797 14.573 69.5485 14.4552 69.4534 14.3517C69.3579 14.2485 69.2419 14.1761 69.105 14.1346Z" fill="#0D0C23"/>
<path fill-rule="evenodd" clip-rule="evenodd" d="M75.8653 12.7514C75.8235 12.9954 75.7676 13.2642 75.6972 13.5574C75.6265 13.851 75.5375 14.1547 75.4298 14.4689C75.3219 14.7831 75.1894 15.0662 75.0319 15.3182C74.8742 15.5705 74.6939 15.7708 74.4907 15.9196C74.2874 16.0684 74.0533 16.1304 73.7879 16.1055C73.6552 16.0892 73.5536 15.9982 73.4832 15.8327C73.4126 15.6676 73.3753 15.4566 73.3711 15.2004C73.3669 14.9443 73.3897 14.6632 73.4395 14.3572C73.4893 14.0515 73.5661 13.7517 73.6699 13.4582C73.7734 13.165 73.9 12.8941 74.0489 12.646C74.1983 12.3981 74.3703 12.2059 74.5653 12.0695C74.7601 11.9331 74.9738 11.8692 75.2058 11.8772C75.4379 11.8856 75.6866 12.0012 75.9524 12.2244C75.9354 12.332 75.9067 12.5078 75.8653 12.7514ZM80.2869 13.7C80.1583 13.6339 80.0256 13.6196 79.889 13.6567C79.7521 13.6939 79.6544 13.82 79.5965 14.0349C79.5634 14.2664 79.4888 14.539 79.3728 14.8532C79.2565 15.1674 79.1135 15.4651 78.9438 15.7459C78.7735 16.027 78.5787 16.2606 78.3589 16.4466C78.1391 16.6327 77.9051 16.7174 77.6563 16.7006C77.4488 16.6843 77.3035 16.5789 77.2209 16.3846C77.1377 16.1903 77.0943 15.9467 77.0904 15.6529C77.0859 15.3597 77.1151 15.0291 77.1772 14.6611C77.2395 14.2933 77.3141 13.9276 77.4012 13.5636C77.4883 13.2001 77.5773 12.8507 77.6689 12.5159C77.7598 12.1812 77.8344 11.898 77.8926 11.6666C77.9591 11.4599 77.9382 11.2844 77.8302 11.1395C77.7226 10.9951 77.5879 10.8916 77.4262 10.8296C77.2643 10.7676 77.1007 10.7511 76.9346 10.78C76.7687 10.809 76.6613 10.8978 76.6112 11.0465C76.1221 10.6249 75.6516 10.3976 75.1997 10.3646C74.7476 10.3316 74.3308 10.4308 73.9496 10.6622C73.5681 10.8936 73.2303 11.2284 72.9359 11.6666C72.6415 12.1049 72.4031 12.5821 72.2206 13.0988C72.0383 13.6154 71.9242 14.1425 71.8786 14.6797C71.833 15.217 71.868 15.7069 71.9843 16.1491C72.1006 16.5913 72.3054 16.9531 72.6001 17.2339C72.8942 17.515 73.2946 17.6556 73.8004 17.6556C74.0241 17.6556 74.2398 17.6102 74.4471 17.5192C74.6544 17.4282 74.8452 17.3207 75.0194 17.1968C75.1933 17.0728 75.3469 16.9426 75.4796 16.8062C75.6121 16.6698 75.7159 16.5562 75.7904 16.4651C75.8483 16.7628 75.944 17.0151 76.0765 17.2216C76.2092 17.4282 76.3606 17.5979 76.5306 17.7299C76.7003 17.862 76.8789 17.9592 77.0653 18.0214C77.252 18.0833 77.4323 18.1143 77.6065 18.1143C77.9963 18.1143 78.3608 17.982 78.7011 17.7174C79.0409 17.4532 79.3458 17.1285 79.6155 16.7442C79.8848 16.3597 80.1066 15.9548 80.2807 15.529C80.4549 15.1033 80.5709 14.7251 80.6288 14.3943C80.687 14.2704 80.6767 14.1403 80.5979 14.0039C80.5189 13.8675 80.4154 13.7664 80.2869 13.7Z" fill="#0D0C23"/>
<path fill-rule="evenodd" clip-rule="evenodd" d="M102.676 20.5454C102.606 20.8264 102.496 21.0642 102.347 21.2583C102.197 21.4526 102.011 21.5539 101.787 21.5623C101.646 21.5704 101.538 21.496 101.463 21.339C101.389 21.1819 101.337 20.9794 101.308 20.7315C101.279 20.4834 101.266 20.2064 101.271 19.9006C101.275 19.5948 101.287 19.2931 101.308 18.9955C101.328 18.698 101.354 18.4208 101.383 18.1647C101.411 17.9083 101.434 17.7103 101.451 17.5696C101.733 17.6027 101.967 17.7244 102.154 17.9354C102.34 18.1462 102.483 18.3961 102.583 18.6856C102.682 18.9749 102.74 19.287 102.757 19.6217C102.773 19.9565 102.746 20.2643 102.676 20.5454ZM98.1735 20.5454C98.1031 20.8264 97.9932 21.0642 97.8438 21.2583C97.6946 21.4526 97.5082 21.5539 97.2842 21.5623C97.1431 21.5704 97.0355 21.496 96.9609 21.339C96.886 21.1819 96.8343 20.9794 96.8053 20.7315C96.7761 20.4834 96.7636 20.2064 96.7681 19.9006C96.772 19.5948 96.7845 19.2931 96.8053 18.9955C96.8259 18.698 96.8507 18.4208 96.8799 18.1647C96.9089 17.9083 96.9317 17.7103 96.9484 17.5696C97.2302 17.6027 97.4648 17.7244 97.6509 17.9354C97.8376 18.1462 97.9807 18.3961 98.0803 18.6856C98.1799 18.9749 98.2378 19.287 98.2544 19.6217C98.2709 19.9565 98.2439 20.2643 98.1735 20.5454ZM93.553 13.5026C93.5443 13.7008 93.5257 13.8765 93.4967 14.0294C93.4675 14.1826 93.4283 14.2795 93.3785 14.3209C93.2872 14.2712 93.1751 14.1433 93.0427 13.9365C92.9099 13.7299 92.8064 13.4961 92.7316 13.2358C92.6573 12.9755 92.6342 12.7194 92.6634 12.4671C92.6921 12.215 92.8231 12.0189 93.0552 11.8781C93.1462 11.8285 93.2249 11.8471 93.2914 11.9339C93.3579 12.0208 93.4116 12.1468 93.4533 12.3121C93.4945 12.4776 93.5235 12.6676 93.5402 12.8825C93.5568 13.0975 93.5607 13.3041 93.553 13.5026ZM92.4519 15.9763C92.3234 16.1125 92.1801 16.2303 92.0229 16.3296C91.8651 16.4288 91.7035 16.5033 91.5376 16.5528C91.3718 16.6025 91.2224 16.6148 91.0899 16.5899C90.7168 16.5157 90.4305 16.3543 90.2318 16.1064C90.0326 15.8584 89.906 15.5671 89.8523 15.2324C89.7983 14.8975 89.8044 14.5399 89.8709 14.1597C89.9372 13.7795 90.049 13.4262 90.2068 13.0996C90.3643 12.773 90.5552 12.4919 90.7789 12.2564C91.0028 12.0208 91.2471 11.8742 91.5129 11.8161C91.4133 12.2377 91.3801 12.6739 91.4133 13.1243C91.4464 13.5748 91.5543 13.9984 91.7369 14.3952C91.8526 14.6352 91.9917 14.854 92.1534 15.0524C92.315 15.2509 92.512 15.4204 92.7444 15.5608C92.6779 15.7015 92.5802 15.8399 92.4519 15.9763ZM106.215 13.6266C106.24 13.4365 106.277 13.2358 106.327 13.025C106.376 12.8144 106.439 12.6097 106.513 12.4114C106.588 12.2128 106.675 12.0414 106.775 11.8968C106.874 11.7523 106.98 11.6487 107.092 11.5868C107.204 11.5248 107.318 11.5309 107.434 11.6053C107.558 11.6799 107.635 11.8369 107.664 12.0765C107.693 12.3163 107.664 12.5725 107.577 12.8454C107.49 13.1181 107.334 13.3744 107.11 13.614C106.887 13.854 106.584 14.0109 106.202 14.0853C106.186 13.9696 106.19 13.8168 106.215 13.6266ZM111.228 13.6266C111.252 13.4365 111.29 13.2358 111.339 13.025C111.389 12.8144 111.452 12.6097 111.526 12.4114C111.601 12.2128 111.688 12.0414 111.787 11.8968C111.887 11.7523 111.992 11.6487 112.104 11.5868C112.216 11.5248 112.331 11.5309 112.447 11.6053C112.571 11.6799 112.647 11.8369 112.677 12.0765C112.706 12.3163 112.677 12.5725 112.59 12.8454C112.502 13.1181 112.347 13.3744 112.123 13.614C111.899 13.854 111.597 14.0109 111.215 14.0853C111.199 13.9696 111.203 13.8168 111.228 13.6266ZM115.886 14.3519C115.79 14.2487 115.674 14.1763 115.538 14.1348C115.401 14.0936 115.27 14.0895 115.146 14.1226C115.021 14.1556 114.942 14.2424 114.909 14.3829C114.843 14.6475 114.737 14.9182 114.592 15.1949C114.447 15.4721 114.269 15.7345 114.057 15.9824C113.846 16.2303 113.607 16.4496 113.342 16.6396C113.077 16.8298 112.799 16.9662 112.509 17.0486C112.218 17.1399 111.978 17.1501 111.787 17.0798C111.597 17.0096 111.445 16.8898 111.333 16.7203C111.221 16.5507 111.14 16.3462 111.091 16.1064C111.041 15.8668 111.012 15.6189 111.004 15.3624C111.476 15.3957 111.897 15.311 112.266 15.1083C112.635 14.9058 112.948 14.637 113.205 14.3022C113.462 13.9676 113.657 13.5915 113.79 13.174C113.922 12.7565 113.997 12.3412 114.014 11.9278C114.022 11.5393 113.964 11.2106 113.839 10.9419C113.715 10.6734 113.547 10.4645 113.336 10.3159C113.124 10.1669 112.882 10.0802 112.608 10.0554C112.335 10.0305 112.057 10.068 111.775 10.1669C111.435 10.2828 111.147 10.4708 110.911 10.7312C110.674 10.9917 110.477 11.2935 110.32 11.6363C110.162 11.9796 110.038 12.3492 109.946 12.7461C109.855 13.1429 109.789 13.5336 109.748 13.9179C109.707 14.2909 109.685 14.6478 109.68 14.9895C109.649 15.0576 109.615 15.126 109.579 15.1949C109.434 15.4721 109.256 15.7345 109.044 15.9824C108.833 16.2303 108.595 16.4496 108.329 16.6396C108.064 16.8298 107.786 16.9662 107.496 17.0486C107.206 17.1399 106.965 17.1501 106.775 17.0798C106.584 17.0096 106.433 16.8898 106.321 16.7203C106.209 16.5507 106.128 16.3462 106.078 16.1064C106.028 15.8668 105.999 15.6189 105.991 15.3624C106.463 15.3957 106.884 15.311 107.253 15.1083C107.622 14.9058 107.935 14.637 108.192 14.3022C108.45 13.9676 108.644 13.5915 108.777 13.174C108.91 12.7565 108.984 12.3412 109.001 11.9278C109.009 11.5393 108.951 11.2106 108.827 10.9419C108.703 10.6734 108.534 10.4645 108.323 10.3159C108.112 10.1669 107.869 10.0802 107.595 10.0554C107.322 10.0305 107.044 10.068 106.762 10.1669C106.422 10.2828 106.134 10.4708 105.898 10.7312C105.661 10.9917 105.464 11.2935 105.307 11.6363C105.149 11.9796 105.025 12.3492 104.934 12.7461C104.842 13.1429 104.776 13.5336 104.735 13.9179C104.711 14.1347 104.696 14.3448 104.684 14.5512C104.604 14.6192 104.526 14.6876 104.442 14.7548C104.157 14.9863 103.856 15.1949 103.541 15.381C103.225 15.5671 102.898 15.72 102.558 15.8399C102.218 15.9597 101.87 16.0321 101.513 16.0568L102.285 7.82349C102.334 7.64983 102.309 7.49709 102.21 7.3648C102.11 7.23248 101.982 7.14157 101.824 7.09201C101.667 7.04229 101.498 7.04655 101.32 7.10429C101.142 7.16233 100.995 7.29462 100.879 7.50101C100.821 7.8153 100.761 8.24507 100.699 8.79061C100.636 9.33616 100.574 9.93142 100.512 10.5762C100.45 11.221 100.387 11.8864 100.325 12.5725C100.263 13.2588 100.209 13.8993 100.164 14.4944C100.162 14.5209 100.16 14.5448 100.158 14.5709C100.085 14.6322 100.015 14.6941 99.9398 14.7548C99.6537 14.9863 99.353 15.1949 99.038 15.381C98.7227 15.5671 98.3952 15.72 98.0555 15.8399C97.7152 15.9597 97.3668 16.0321 97.0104 16.0568L97.7817 7.82349C97.8315 7.64983 97.8068 7.49709 97.7071 7.3648C97.6075 7.23248 97.479 7.14157 97.3215 7.09201C97.164 7.04229 96.9959 7.04655 96.8176 7.10429C96.6392 7.16233 96.4923 7.29462 96.3763 7.50101C96.3181 7.8153 96.258 8.24507 96.196 8.79061C96.1337 9.33616 96.0713 9.93142 96.0093 10.5762C95.947 11.221 95.8849 11.8864 95.8226 12.5725C95.7605 13.2588 95.7066 13.8993 95.6609 14.4944C95.6601 14.5064 95.6593 14.5173 95.6584 14.5292C95.5279 14.5894 95.386 14.6423 95.2319 14.6867C95.0741 14.7323 94.896 14.7592 94.6971 14.7674C94.7302 14.6184 94.7569 14.4531 94.7778 14.2712C94.7984 14.0895 94.8153 13.8993 94.8276 13.7008C94.8401 13.5026 94.844 13.3041 94.8401 13.1057C94.8357 12.9072 94.8254 12.7255 94.8089 12.56C94.7675 12.2048 94.691 11.8679 94.5791 11.5495C94.467 11.2314 94.3156 10.9649 94.125 10.7497C93.9341 10.5348 93.6957 10.3901 93.4097 10.3159C93.1236 10.2415 92.7897 10.2662 92.4085 10.3901C91.8443 10.3159 91.3365 10.3676 90.8846 10.5452C90.4327 10.7231 90.041 10.9813 89.7093 11.3201C89.3776 11.6593 89.1061 12.0579 88.8946 12.5168C88.6831 12.9755 88.5421 13.4468 88.4717 13.9302C88.4416 14.1351 88.4271 14.3392 88.4227 14.5427C88.2944 14.8048 88.1539 15.0338 87.9989 15.2261C87.7794 15.4989 87.5512 15.7221 87.315 15.8956C87.0785 16.0692 86.8442 16.2015 86.6122 16.2925C86.3798 16.3835 86.1725 16.4455 85.9903 16.4784C85.7746 16.5198 85.5673 16.524 85.3684 16.4908C85.1695 16.4579 84.9866 16.3628 84.8211 16.2056C84.6884 16.09 84.5868 15.9039 84.5164 15.6476C84.4457 15.3914 84.4046 15.1002 84.392 14.7735C84.3795 14.4469 84.392 14.1059 84.4293 13.7505C84.4666 13.3952 84.5306 13.0582 84.6221 12.74C84.7131 12.4217 84.8292 12.1366 84.9702 11.8842C85.111 11.6324 85.2769 11.4524 85.4677 11.345C85.5754 11.3617 85.6422 11.4255 85.667 11.537C85.6917 11.6487 85.6978 11.781 85.6856 11.9339C85.6731 12.087 85.6544 12.244 85.6297 12.4051C85.6046 12.5663 85.5921 12.7008 85.5921 12.8081C85.6338 13.0313 85.7145 13.205 85.8347 13.329C85.9549 13.4529 86.0899 13.5254 86.239 13.5459C86.3882 13.5666 86.5354 13.5316 86.6806 13.4405C86.8256 13.3497 86.9438 13.205 87.0351 13.0064C87.0434 13.0148 87.0557 13.0189 87.0724 13.0189L87.2466 11.4442C87.2964 11.2292 87.263 11.0392 87.1469 10.8739C87.0309 10.7085 86.8776 10.6133 86.6867 10.5887C86.4463 10.2415 86.1208 10.0576 85.7104 10.0368C85.2999 10.0162 84.879 10.1505 84.448 10.4398C84.1825 10.6302 83.9482 10.8924 83.7451 11.2271C83.5417 11.5621 83.3762 11.9339 83.2476 12.3431C83.1188 12.7523 83.0278 13.1844 82.9741 13.639C82.9201 14.0936 82.9096 14.536 82.9427 14.9656C82.9758 15.3957 83.0529 15.8007 83.1731 16.1808C83.293 16.5611 83.461 16.8794 83.677 17.1355C83.8592 17.3587 84.0662 17.5221 84.2985 17.6255C84.5306 17.7288 84.7732 17.7927 85.0262 17.8175C85.2791 17.8422 85.5301 17.8319 85.7788 17.7866C86.0276 17.7413 86.2641 17.6772 86.4878 17.5943C86.778 17.4871 87.0765 17.3505 87.3834 17.1852C87.6901 17.02 87.9845 16.8215 88.2666 16.5899C88.4146 16.4682 88.5576 16.3354 88.6956 16.193C88.7585 16.3484 88.8286 16.4989 88.9132 16.6396C89.1372 17.0115 89.4397 17.3134 89.8211 17.5448C90.2023 17.7762 90.6712 17.8876 91.2268 17.8795C91.8239 17.8712 92.3751 17.7205 92.881 17.427C93.3868 17.1337 93.8014 16.7015 94.125 16.1312C94.6094 16.1312 95.0858 16.0516 95.5544 15.8935C95.5505 15.9435 95.5466 15.9962 95.543 16.0445C95.5098 16.4827 95.4929 16.7801 95.4929 16.9373C95.4848 17.21 95.4664 17.5468 95.4372 17.9476C95.408 18.3486 95.3894 18.7702 95.3813 19.2124C95.3729 19.6546 95.3894 20.101 95.4308 20.5517C95.4726 21.0021 95.5594 21.4114 95.6921 21.7793C95.8245 22.147 96.0132 22.4591 96.258 22.7155C96.5026 22.9716 96.824 23.1246 97.2222 23.1742C97.6448 23.2319 98.0096 23.1575 98.3165 22.951C98.6231 22.7443 98.8721 22.4613 99.063 22.1017C99.2536 21.7419 99.3883 21.3266 99.467 20.8555C99.5458 20.3843 99.5686 19.911 99.5355 19.4356C99.5024 18.9602 99.4153 18.5119 99.2742 18.0905C99.1331 17.6688 98.9384 17.3216 98.6896 17.0486C98.839 17.0076 99.0171 16.9291 99.2247 16.8131C99.4317 16.6975 99.6454 16.5673 99.8652 16.4226C99.9192 16.387 99.9723 16.3496 100.026 16.3131C100.006 16.606 99.9957 16.8149 99.9957 16.9373C99.9876 17.21 99.969 17.5468 99.9398 17.9476C99.9108 18.3486 99.8922 18.7702 99.8838 19.2124C99.8758 19.6546 99.8922 20.101 99.9337 20.5517C99.9751 21.0021 100.062 21.4114 100.195 21.7793C100.327 22.147 100.516 22.4591 100.761 22.7155C101.005 22.9716 101.327 23.1246 101.725 23.1742C102.147 23.2319 102.512 23.1575 102.819 22.951C103.126 22.7443 103.375 22.4613 103.566 22.1017C103.756 21.7419 103.891 21.3266 103.97 20.8555C104.049 20.3843 104.071 19.911 104.038 19.4356C104.005 18.9602 103.918 18.5119 103.777 18.0905C103.636 17.6688 103.441 17.3216 103.192 17.0486C103.342 17.0076 103.52 16.9291 103.727 16.8131C103.935 16.6975 104.148 16.5673 104.368 16.4226C104.482 16.3474 104.596 16.2698 104.709 16.19C104.751 16.5943 104.843 16.9489 104.99 17.2471C105.168 17.611 105.41 17.892 105.717 18.0905C106.024 18.2887 106.385 18.3983 106.8 18.4189C107.214 18.4394 107.666 18.3631 108.155 18.1894C108.52 18.0573 108.837 17.892 109.107 17.6936C109.376 17.4951 109.619 17.2533 109.834 16.9683C109.847 16.9517 109.859 16.9338 109.871 16.9171C109.909 17.0329 109.952 17.1441 110.002 17.2471C110.181 17.611 110.423 17.892 110.73 18.0905C111.037 18.2887 111.398 18.3983 111.812 18.4189C112.227 18.4394 112.679 18.3631 113.168 18.1894C113.533 18.0573 113.85 17.892 114.12 17.6936C114.389 17.4951 114.631 17.2533 114.847 16.9683C115.063 16.6829 115.259 16.3543 115.438 15.9824C115.616 15.6104 115.796 15.1849 115.979 14.7052C116.012 14.5731 115.981 14.4553 115.886 14.3519Z" fill="#0D0C23"/>
</g>
<defs>
<clipPath id="clip0_2217_1157">
<rect width="116" height="25.4162" fill="white" transform="translate(0 0.291992)"/>
</clipPath>
</defs>
</svg>